<svg width="150" height="150" viewBox="0 0 150 150" shape-rendering="geometricPrecision" version="1.1" xmlns="http://www.w3.org/2000/svg"><desc>Created by https://guilds.gw2w2w.com/</desc><rect x="0" y="0" width="150" height="150" fill="none" stroke="none" /><g transform="matrix(0.5859375,0,0,0.5859375,0,0)">
<g fill="rgb(194,97,106)" stroke="rgb(194,97,106)" stroke-width=".05%" stroke-opacity="50%" opacity="0.7"><path d=" M 91.22 20.07 C 102.82 16.52 114.73 12.89 127.01 13.55 C 143.01 12.82 158.97 16.26 173.74 22.28 C 185.04 28.31 196.45 34.45 206.36 42.63 C 216.81 51.45 224.66 62.90 231.04 74.90 C 237.39 86.42 240.79 99.32 243.08 112.19 C 243.94 121.75 243.79 131.40 243.27 140.98 C 241.83 149.46 239.73 157.84 237.05 166.02 C 229.80 186.52 216.79 205.10 199.39 218.24 C 193.08 222.42 186.69 226.52 179.92 229.95 C 170.48 235.43 159.78 238.15 149.19 240.37 C 142.56 241.83 135.75 241.75 129.01 241.76 C 122.30 241.70 115.48 241.91 108.94 240.16 C 101.22 238.68 93.83 235.98 86.28 233.88 C 81.09 230.91 75.43 228.80 70.43 225.49 C 66.83 223.11 63.13 220.89 59.33 218.85 C 55.58 214.86 51.19 211.52 47.46 207.51 C 42.90 202.37 37.71 197.66 34.53 191.46 C 30.27 184.96 27.00 177.90 22.92 171.29 C 20.25 161.55 16.81 151.97 15.49 141.91 C 14.23 128.54 14.37 114.87 17.73 101.81 C 19.83 93.73 22.05 85.54 26.33 78.29 C 29.92 71.10 34.24 64.32 38.71 57.65 C 51.92 40.22 70.55 27.11 91.22 20.07 M 114.62 19.41 C 113.90 23.35 113.34 27.32 113.00 31.32 C 115.96 30.90 118.92 30.51 121.88 30.13 C 120.23 26.54 118.55 22.96 116.84 19.40 C 116.28 19.40 115.18 19.41 114.62 19.41 M 118.54 18.80 C 121.71 22.85 125.38 26.47 129.24 29.85 C 133.52 26.62 137.37 22.87 140.83 18.79 C 133.41 18.38 125.96 18.25 118.54 18.80 M 138.19 30.12 C 141.13 30.56 144.07 31.00 147.01 31.47 C 146.65 27.08 145.98 22.73 144.88 18.47 C 141.60 21.68 139.94 25.98 138.19 30.12 M 91.07 25.69 C 95.20 28.43 99.55 30.82 104.04 32.92 C 106.93 28.81 109.60 24.54 111.85 20.05 C 104.68 20.88 97.73 22.96 91.07 25.69 M 147.17 20.04 C 149.29 24.61 151.87 28.94 154.84 33.01 C 159.62 31.01 164.23 28.57 168.25 25.26 C 161.35 23.06 154.41 20.82 147.17 20.04 M 87.48 25.55 C 87.34 30.09 87.53 34.63 87.81 39.16 C 90.64 38.17 93.47 37.15 96.30 36.13 C 94.23 31.95 91.42 28.16 87.48 25.55 M 163.23 35.84 C 166.03 37.20 168.83 38.55 171.64 39.89 C 172.35 35.35 172.76 30.76 172.53 26.16 C 168.75 28.67 165.82 32.15 163.23 35.84 M 65.52 39.12 C 70.35 40.99 75.40 42.17 80.52 42.91 C 82.57 37.97 84.06 32.81 84.85 27.52 C 78.09 30.81 71.46 34.46 65.52 39.12 M 174.04 27.59 C 174.68 33.20 176.20 38.67 178.59 43.78 C 183.91 42.84 189.16 41.54 194.27 39.79 C 188.32 34.52 181.16 30.96 174.04 27.59 M 113.45 35.70 C 101.26 38.60 88.44 41.48 78.43 49.46 C 70.32 55.20 63.06 62.08 56.59 69.60 C 49.09 78.50 42.67 88.63 40.01 100.08 C 34.67 116.56 34.03 134.62 38.80 151.32 C 41.15 159.96 43.65 168.82 48.90 176.22 C 53.27 182.38 57.74 188.54 63.25 193.75 C 68.72 199.05 75.03 203.36 81.14 207.86 C 88.87 213.51 98.33 215.77 107.39 218.31 C 128.16 223.87 150.53 220.76 170.01 212.15 C 182.06 205.76 192.58 196.70 201.49 186.44 C 206.52 180.03 211.93 173.66 214.96 166.00 C 219.66 153.22 223.53 139.80 222.79 126.03 C 223.32 114.02 219.70 102.42 215.96 91.17 C 211.22 80.04 203.95 70.04 195.09 61.83 C 184.64 50.40 170.85 41.95 155.79 38.25 C 142.18 33.82 127.49 33.39 113.45 35.70 M 62.84 40.51 C 63.59 44.58 64.87 48.53 66.47 52.35 C 68.77 50.63 71.08 48.92 73.38 47.19 C 70.03 44.72 66.52 42.47 62.84 40.51 M 186.26 46.78 C 186.28 47.21 186.30 48.08 186.31 48.52 C 188.55 49.90 190.80 51.28 193.03 52.68 C 194.61 48.74 196.03 44.72 197.01 40.59 C 193.10 42.03 189.49 44.15 186.26 46.78 M 44.97 58.50 C 49.85 58.65 54.73 58.54 59.60 58.33 C 60.33 53.41 60.55 48.44 60.22 43.48 C 54.67 47.99 49.73 53.18 44.97 58.50 M 198.66 42.91 C 198.51 46.60 198.26 50.31 198.50 54.02 C 198.65 55.48 198.61 57.21 199.94 58.18 C 204.59 58.82 209.30 58.37 213.97 58.32 C 209.21 52.85 204.08 47.72 198.66 42.91 M 41.98 60.97 C 44.10 64.77 46.58 68.33 49.17 71.82 C 50.80 69.41 52.41 66.99 54.04 64.58 C 50.26 62.69 46.21 61.36 41.98 60.97 M 204.95 64.61 C 206.60 66.88 208.23 69.15 209.88 71.42 C 212.26 68.01 214.53 64.52 216.56 60.88 C 212.58 61.74 208.70 63.02 204.95 64.61 M 40.72 63.79 C 36.41 69.95 32.76 76.52 28.99 83.02 C 34.41 82.66 39.62 81.09 44.65 79.14 C 43.89 73.90 42.63 68.74 40.72 63.79 M 214.02 78.32 C 218.90 80.48 224.03 82.06 229.31 82.87 C 226.44 75.78 222.22 69.36 217.95 63.05 C 216.12 67.99 214.80 73.10 214.02 78.32 M 217.09 85.27 C 218.63 87.99 220.19 90.71 221.77 93.41 C 225.20 90.71 228.47 87.79 231.44 84.58 C 226.65 84.06 221.81 84.31 217.09 85.27 M 27.44 84.51 C 29.79 88.54 33.46 91.39 37.20 94.05 C 38.55 91.23 39.88 88.40 41.20 85.57 C 36.63 85.04 32.04 84.56 27.44 84.51 M 231.66 88.52 C 228.74 92.73 226.31 97.26 224.23 101.94 C 228.31 104.79 232.56 107.39 237.04 109.58 C 236.46 102.30 234.43 95.25 231.66 88.52 M 21.16 110.17 C 25.75 108.08 30.09 105.51 34.22 102.62 C 32.46 97.80 30.04 93.26 26.97 89.15 C 24.07 95.86 22.39 102.99 21.16 110.17 M 226.20 109.25 C 226.40 112.26 226.61 115.27 226.82 118.28 C 230.48 116.92 234.10 115.44 237.63 113.77 C 237.67 113.24 237.73 112.17 237.76 111.64 C 233.91 110.80 230.06 110.01 226.20 109.25 M 19.66 112.94 C 23.40 115.30 27.37 117.27 31.44 119.02 C 31.88 116.03 32.34 113.05 32.77 110.07 C 28.29 110.45 23.88 111.39 19.66 112.94 M 228.08 127.07 C 230.18 131.84 234.63 134.94 238.39 138.34 C 238.84 130.90 238.84 123.42 238.32 115.98 C 234.70 119.46 230.55 122.61 228.08 127.07 M 20.48 138.80 C 24.26 135.41 27.77 131.75 31.11 127.93 C 27.92 123.85 24.32 120.12 20.53 116.61 C 19.37 123.96 19.40 131.44 20.48 138.80 M 226.95 135.01 C 226.70 137.99 226.45 140.96 226.19 143.94 C 230.38 143.40 234.56 142.77 238.69 141.88 C 235.81 138.10 231.15 136.74 226.95 135.01 M 19.63 141.42 C 23.80 143.18 28.21 144.24 32.71 144.72 C 32.27 141.61 31.80 138.49 31.35 135.38 C 27.36 137.21 23.39 139.13 19.63 141.42 M 225.28 152.42 C 225.37 157.31 228.82 161.40 231.67 165.11 C 234.71 158.83 236.24 151.93 237.01 145.03 C 232.99 147.29 228.64 149.18 225.28 152.42 M 21.13 145.31 C 22.43 152.42 24.31 159.42 26.87 166.19 C 29.87 162.11 32.39 157.71 34.08 152.93 C 29.89 150.19 25.58 147.62 21.13 145.31 M 28.29 167.33 C 28.23 167.96 28.10 169.21 28.04 169.84 C 32.15 169.74 36.25 169.55 40.35 169.28 C 39.30 166.42 38.25 163.56 37.19 160.71 C 34.16 162.83 31.18 165.02 28.29 167.33 M 217.95 168.50 C 222.58 169.17 227.25 169.61 231.93 169.50 C 229.15 165.75 225.53 162.78 221.73 160.13 C 220.46 162.91 219.21 165.71 217.95 168.50 M 214.18 176.55 C 215.13 181.56 216.42 186.49 218.17 191.28 C 222.88 185.41 226.29 178.67 229.66 171.98 C 224.27 172.62 219.05 174.19 214.18 176.55 M 28.95 172.24 C 31.95 179.16 35.37 186.07 40.54 191.66 C 42.45 186.87 43.64 181.84 44.58 176.78 C 39.49 174.89 34.28 173.30 28.95 172.24 M 41.72 194.83 C 45.98 193.79 50.13 192.37 54.24 190.87 C 52.42 188.34 50.60 185.82 48.79 183.28 C 45.93 186.80 43.48 190.64 41.72 194.83 M 204.93 190.32 C 208.80 192.02 212.86 193.27 217.03 193.97 C 214.93 190.29 212.53 186.80 210.02 183.38 C 208.32 185.69 206.62 188.01 204.93 190.32 M 44.66 196.81 C 48.89 202.54 54.43 207.05 59.78 211.66 C 60.24 206.79 60.13 201.91 59.58 197.06 C 54.62 196.60 49.63 196.49 44.66 196.81 M 198.70 211.57 C 204.27 207.14 209.18 201.98 213.79 196.58 C 208.98 196.45 204.18 196.52 199.37 196.69 C 198.66 201.61 198.45 206.59 198.70 211.57 M 66.51 202.72 C 64.83 206.66 63.56 210.77 62.77 214.99 C 66.47 212.92 69.99 210.54 73.37 207.98 C 71.09 206.21 68.80 204.46 66.51 202.72 M 185.65 207.70 C 189.05 210.47 192.75 212.89 196.87 214.44 C 195.77 210.43 194.34 206.54 192.82 202.68 C 190.44 204.36 188.04 206.02 185.65 207.70 M 65.74 216.33 C 71.60 220.99 78.22 224.57 84.87 227.96 C 83.98 222.94 82.69 218.00 81.10 213.16 C 75.83 213.32 70.69 214.58 65.74 216.33 M 177.97 212.22 C 176.08 217.28 174.60 222.50 174.09 227.91 C 180.62 223.99 187.39 220.45 193.52 215.90 C 188.47 214.16 183.26 212.92 177.97 212.22 M 163.12 219.74 C 165.61 222.64 168.07 225.57 170.49 228.54 C 171.05 228.56 172.17 228.61 172.73 228.63 C 172.64 224.21 172.31 219.81 171.62 215.45 C 168.78 216.86 165.95 218.29 163.12 219.74 M 87.42 229.75 C 91.31 227.22 94.11 223.50 96.71 219.74 C 93.89 218.51 91.07 217.31 88.25 216.11 C 87.54 220.62 87.22 225.18 87.42 229.75 M 91.00 230.03 C 97.80 232.40 104.75 234.38 111.87 235.54 C 109.64 231.14 107.10 226.93 104.42 222.80 C 99.52 224.34 95.07 226.93 91.00 230.03 M 147.05 235.67 C 154.31 234.39 161.45 232.45 168.39 229.94 C 164.21 226.93 159.67 224.48 155.01 222.32 C 151.90 226.48 149.23 230.95 147.05 235.67 M 138.18 225.37 C 139.87 228.87 141.53 232.39 143.20 235.91 C 143.74 235.82 144.82 235.65 145.37 235.56 C 146.08 231.77 146.65 227.95 147.02 224.11 C 144.07 224.52 141.12 224.93 138.18 225.37 M 112.98 224.13 C 113.35 228.02 113.90 231.89 114.55 235.75 C 115.15 235.75 116.36 235.75 116.96 235.75 C 118.58 232.32 120.18 228.90 121.82 225.49 C 118.88 225.02 115.93 224.56 112.98 224.13 M 118.51 236.51 C 125.89 236.89 133.27 236.91 140.64 236.44 C 137.29 232.43 133.47 228.82 129.25 225.73 C 125.36 229.01 121.73 232.57 118.51 236.51 Z" /></g>
</g><g transform="matrix(0.5859375,0,0,0.5859375,0,0)">
<g fill="rgb(0,108,108)" stroke="rgb(0,108,108)" stroke-width=".05%" stroke-opacity="50%"><path d=" M 77.83 80.38 C 86.29 82.54 94.00 88.81 96.21 97.51 C 92.34 96.30 88.43 95.22 84.48 94.35 C 83.57 90.95 83.16 87.14 80.61 84.48 C 79.47 83.27 78.52 81.89 77.83 80.38 Z" />
<path d=" M 75.31 91.97 C 79.40 95.66 84.67 97.73 88.50 101.74 C 87.66 102.98 86.82 104.22 85.99 105.47 C 85.47 105.56 84.42 105.74 83.89 105.82 C 79.69 102.16 76.73 97.36 75.31 91.97 Z" />
<path d=" M 96.53 99.06 C 97.02 97.77 97.48 96.49 97.95 95.20 C 102.55 102.18 105.80 110.00 110.89 116.67 C 109.89 116.56 108.89 116.44 107.90 116.32 C 102.73 111.57 99.32 105.42 96.53 99.06 Z" />
<path d=" M 88.54 97.12 C 89.64 97.28 91.83 97.60 92.93 97.77 C 93.72 99.47 94.51 101.17 95.42 102.82 C 95.84 104.43 96.20 106.05 96.47 107.70 C 92.07 105.78 90.60 101.01 88.54 97.12 Z" />
<path d=" M 129.28 124.52 C 130.76 116.43 135.59 109.24 141.64 103.82 C 143.35 109.96 143.04 116.58 141.18 122.65 C 140.67 124.58 139.01 126.02 136.92 125.98 C 137.32 124.59 137.75 123.21 138.20 121.83 C 137.92 121.41 137.34 120.55 137.05 120.12 C 133.97 120.55 131.77 122.88 129.28 124.52 Z" />
<path d=" M 86.92 107.77 C 88.32 106.60 90.21 107.21 91.85 107.28 C 91.86 109.56 91.76 111.84 91.68 114.12 C 92.06 114.32 92.83 114.73 93.22 114.93 C 93.44 112.77 93.69 110.61 94.01 108.47 C 100.36 112.88 97.10 121.77 94.97 127.63 C 94.32 125.28 93.69 122.92 93.21 120.52 C 92.62 120.19 91.44 119.51 90.85 119.18 C 88.62 119.10 89.62 121.71 89.15 123.02 C 87.72 120.12 85.50 117.42 85.38 114.06 C 85.34 111.94 84.81 109.11 86.92 107.77 Z" />
<path d=" M 144.18 116.80 C 144.60 113.91 146.33 111.51 148.00 109.22 C 150.04 111.94 151.61 115.59 150.08 118.94 C 148.29 123.29 146.52 128.04 142.70 131.04 C 141.96 126.26 143.30 121.48 144.18 116.80 Z" />
<path d=" M 100.79 110.27 C 101.94 111.20 102.99 112.28 103.41 113.74 C 105.81 120.02 110.47 124.97 114.51 130.20 C 107.62 128.71 103.24 122.25 101.17 115.94 C 100.41 114.13 100.68 112.16 100.79 110.27 Z" />
<path d=" M 152.10 118.76 C 155.57 120.14 153.98 124.63 154.57 127.56 C 152.90 130.16 150.52 132.21 148.24 134.27 C 147.33 133.15 146.41 132.04 145.50 130.93 C 148.13 127.12 150.04 122.89 152.10 118.76 Z" />
<path d=" M 98.01 123.53 C 104.40 129.19 111.07 134.52 116.79 140.90 C 110.89 139.62 106.14 135.82 101.10 132.76 C 99.02 131.43 97.40 129.52 96.61 127.17 C 96.96 126.26 97.66 124.44 98.01 123.53 Z" />
<path d=" M 128.49 131.01 C 130.05 129.80 131.61 128.58 133.12 127.31 C 136.64 129.62 139.97 132.20 143.08 135.04 C 142.06 135.27 140.03 135.74 139.01 135.98 C 139.69 136.59 140.37 137.21 141.05 137.83 C 146.55 137.80 151.89 139.41 156.42 142.54 C 160.03 145.14 164.48 146.39 167.80 149.38 C 161.20 149.32 155.59 145.27 149.16 144.35 C 141.06 142.59 132.27 143.95 124.64 140.26 C 120.10 137.61 115.16 135.25 111.91 130.95 C 120.47 133.44 128.60 137.95 137.75 137.89 C 137.69 137.18 137.65 136.47 137.56 135.76 C 134.30 135.42 131.29 134.12 128.25 133.00 C 128.32 132.33 128.41 131.67 128.49 131.01 Z" />
<path d=" M 148.78 137.00 C 150.15 133.62 152.82 131.11 156.02 129.48 C 156.32 130.11 156.93 131.38 157.24 132.01 C 157.27 132.85 157.32 134.53 157.35 135.38 C 155.92 136.97 154.55 139.51 151.99 138.69 C 151.19 138.27 149.58 137.42 148.78 137.00 Z" />
<path d=" M 101.17 139.92 C 106.92 139.06 113.20 140.34 117.37 144.62 C 119.94 147.48 123.21 149.46 126.44 151.48 C 121.58 152.02 116.33 151.60 112.20 148.76 C 108.38 145.99 104.26 143.55 101.17 139.92 Z" />
<path d=" M 123.78 144.62 C 127.57 145.11 131.17 146.47 134.94 147.07 C 140.84 147.96 146.78 149.21 152.19 151.81 C 152.63 152.35 153.50 153.45 153.94 153.99 C 151.72 154.90 149.47 155.74 147.16 156.37 C 143.15 152.34 137.30 151.72 132.21 149.84 C 129.07 148.70 126.32 146.74 123.78 144.62 Z" />
<path d=" M 93.14 146.98 C 95.15 144.93 98.08 144.68 100.71 144.00 C 102.49 147.32 105.72 149.25 109.12 150.60 C 104.81 153.52 99.42 152.27 95.12 150.01 C 93.93 149.36 93.26 148.35 93.14 146.98 Z" />
<path d=" M 157.10 149.37 C 162.71 148.35 167.95 151.55 171.58 155.54 C 174.46 158.91 177.74 162.28 178.61 166.80 C 174.56 164.05 172.34 159.36 168.00 156.97 C 164.52 154.16 159.49 153.39 157.10 149.37 Z" />
<path d=" M 109.57 157.93 C 108.89 155.98 107.29 153.01 109.88 151.75 C 111.42 152.04 112.96 152.37 114.50 152.73 C 112.50 154.10 110.94 155.96 109.57 157.93 Z" />
<path d=" M 126.64 158.32 C 128.73 156.94 130.62 155.26 131.99 153.13 C 135.46 155.88 139.75 157.57 142.70 160.97 C 137.27 163.08 131.01 162.24 126.64 158.32 Z" />
<path d=" M 159.70 153.88 C 163.99 156.50 168.41 159.10 171.83 162.85 C 168.43 161.47 164.86 160.34 161.74 158.38 C 160.88 156.97 160.34 155.39 159.70 153.88 Z" />
<path d=" M 117.13 155.61 C 119.03 155.24 120.92 154.86 122.81 154.45 C 123.42 157.00 123.89 159.58 124.29 162.18 C 120.51 161.90 119.00 158.30 117.13 155.61 Z" />
<path d=" M 153.88 157.38 C 161.03 160.90 169.18 162.43 175.55 167.43 C 177.44 169.04 179.84 170.59 180.05 173.33 C 177.92 172.01 176.06 170.30 173.97 168.93 C 168.68 165.82 162.69 164.26 157.10 161.84 C 155.16 161.18 154.43 159.16 153.88 157.38 Z" />
<path d=" M 220.53 170.98 C 224.47 170.99 228.51 173.02 229.95 176.85 C 231.62 181.81 231.06 188.29 226.51 191.59 C 225.08 193.10 222.96 192.87 221.10 192.64 C 212.51 191.39 203.52 190.74 195.13 193.44 C 188.02 195.44 183.69 202.34 176.73 204.58 C 178.73 199.98 183.69 198.27 187.28 195.23 C 194.74 189.03 202.45 182.62 211.84 179.60 C 215.81 178.41 219.35 175.72 223.65 175.76 C 221.34 179.26 216.53 179.84 214.45 183.61 C 214.58 184.54 214.84 186.39 214.97 187.32 C 219.84 190.50 226.00 186.21 227.34 181.20 C 226.96 180.09 226.59 178.97 226.24 177.86 C 224.52 175.41 222.41 173.29 220.53 170.98 Z" />
<path d=" M 196.10 195.21 C 206.50 192.19 217.47 193.32 227.98 195.08 C 234.52 195.75 241.06 197.19 246.99 200.13 C 232.58 202.51 218.36 198.00 203.98 197.83 C 198.68 197.63 193.63 200.57 188.31 199.11 C 190.76 197.53 193.37 196.24 196.10 195.21 Z" />
<path d=" M 176.28 205.52 C 181.25 205.43 185.11 201.99 189.74 200.76 C 204.86 198.09 219.53 205.34 234.68 203.32 C 229.86 205.85 224.24 205.90 219.36 208.25 C 215.01 209.86 211.40 212.97 207.02 214.48 C 198.79 215.90 191.13 209.97 182.89 211.97 C 174.88 213.12 168.16 217.89 160.84 220.94 C 164.59 214.47 171.57 211.11 176.28 205.52 M 203.53 208.58 C 206.50 209.39 209.49 208.39 211.66 206.31 C 208.74 206.13 205.79 206.60 203.53 208.58 Z" /></g>
<g fill="rgb(124,136,138)" stroke="rgb(124,136,138)" stroke-width=".05%" stroke-opacity="50%"><path d=" M 52.85 70.03 C 53.86 53.90 60.65 37.55 73.66 27.47 C 67.06 37.21 61.07 47.60 58.15 59.09 C 56.86 64.42 55.52 69.91 56.41 75.43 C 58.25 71.39 58.26 66.82 59.83 62.68 C 62.89 52.95 69.69 44.82 77.79 38.82 C 82.18 35.23 87.57 33.37 93.02 32.08 C 86.13 38.16 78.43 43.66 73.55 51.64 C 66.09 62.62 64.87 76.61 66.78 89.44 C 68.38 98.67 71.77 107.88 78.01 115.01 C 82.29 120.23 87.54 124.52 92.81 128.69 C 88.08 127.58 83.00 127.68 78.63 125.32 C 73.39 122.48 69.49 117.79 66.14 112.95 C 56.74 100.85 52.48 85.22 52.85 70.03 Z" />
<path d=" M 110.62 29.54 C 117.11 28.38 124.09 30.72 128.92 35.14 C 141.23 45.68 149.86 60.83 151.32 77.08 C 152.33 87.55 150.95 98.69 144.85 107.52 C 144.10 103.57 143.21 99.54 141.02 96.09 C 130.24 104.49 125.79 118.58 124.76 131.74 C 123.08 129.71 121.36 127.18 122.45 124.42 C 123.90 119.26 124.14 113.70 126.87 108.97 C 131.57 99.95 138.29 91.50 139.58 81.12 C 140.42 69.72 138.19 57.79 132.04 48.05 C 127.00 39.79 118.94 34.14 110.62 29.54 Z" />
<path d=" M 135.50 29.71 C 149.23 37.20 157.30 52.17 160.36 67.07 C 163.86 83.34 160.84 100.44 153.82 115.35 C 153.04 111.45 152.00 107.60 150.40 103.96 C 156.18 91.15 156.07 76.43 152.78 62.98 C 150.94 54.73 147.69 46.80 143.27 39.59 C 141.04 36.02 137.92 33.14 135.50 29.71 Z" />
<path d=" M 51.24 38.05 C 51.55 37.87 52.18 37.50 52.50 37.32 C 49.80 50.66 47.83 64.51 50.28 78.05 C 52.00 86.85 54.21 95.68 58.39 103.66 C 61.46 109.12 64.38 114.74 68.57 119.44 C 72.61 124.26 77.57 128.13 82.35 132.16 C 73.05 130.72 65.96 123.23 61.39 115.44 C 53.35 103.81 49.00 89.96 46.91 76.08 C 45.93 63.32 46.70 50.13 51.24 38.05 Z" />
<path d=" M 159.86 37.87 C 162.04 40.80 163.05 44.34 164.35 47.70 C 167.60 57.03 171.19 66.31 172.96 76.07 C 174.69 87.99 172.74 100.44 167.21 111.15 C 164.78 115.32 161.77 119.11 158.89 122.97 C 158.06 120.66 156.85 118.38 156.85 115.88 C 158.10 111.98 160.63 108.63 161.83 104.70 C 166.11 90.72 167.66 75.68 164.69 61.27 C 162.86 53.52 161.60 45.65 159.86 37.87 Z" />
<path d=" M 41.10 62.31 C 44.31 68.41 44.13 75.47 45.85 82.01 C 47.64 92.13 51.40 101.77 56.00 110.92 C 63.77 125.38 77.67 134.80 89.63 145.49 C 82.17 144.03 76.61 138.54 70.53 134.43 C 58.18 125.61 51.19 111.33 46.85 97.17 C 43.78 85.82 39.37 74.28 41.10 62.31 Z" />
<path d=" M 176.96 75.34 C 180.24 85.53 179.53 96.65 176.94 106.92 C 174.39 117.34 168.60 126.94 160.60 134.09 C 160.05 131.30 159.75 128.48 159.51 125.65 C 165.49 118.37 170.80 110.38 173.34 101.20 C 175.98 92.81 175.32 83.90 176.96 75.34 Z" />
<path d=" M 179.70 109.61 C 182.28 104.22 183.47 98.31 185.81 92.83 C 187.58 105.12 182.78 116.96 178.07 128.03 C 174.40 135.17 167.22 140.47 159.30 141.80 C 166.17 131.13 174.20 121.12 179.70 109.61 Z" />
<path d=" M 43.84 98.24 C 47.96 105.86 51.06 114.03 55.76 121.34 C 61.31 130.17 68.95 137.55 77.43 143.54 C 84.96 148.80 93.81 151.54 101.89 155.77 C 92.87 155.39 83.91 153.76 75.12 151.82 C 66.43 147.17 60.67 138.65 55.41 130.59 C 48.94 120.98 45.46 109.62 43.84 98.24 Z" />
<path d=" M 186.58 110.12 C 190.28 118.72 185.84 127.88 181.46 135.30 C 178.84 140.67 174.34 144.75 169.66 148.32 C 167.82 146.53 165.91 144.80 163.93 143.16 C 172.78 139.07 180.31 131.91 183.91 122.77 C 185.56 118.74 185.90 114.37 186.58 110.12 Z" />
<path d=" M 80.90 133.64 C 87.66 133.23 95.63 131.75 100.94 137.10 C 98.88 137.24 96.83 137.34 94.77 137.43 C 93.98 139.80 94.25 142.29 94.60 144.71 C 89.55 141.67 84.68 138.22 80.90 133.64 Z" />
<path d=" M 169.98 150.72 C 176.22 146.99 180.54 141.10 184.98 135.50 C 182.95 142.75 178.92 149.38 172.75 153.81 C 171.82 152.78 170.90 151.75 169.98 150.72 Z" />
<path d=" M 59.81 149.67 C 72.50 155.77 86.83 157.57 100.78 157.62 C 93.54 160.88 85.57 161.82 78.00 163.98 C 70.59 161.43 64.04 156.28 59.81 149.67 Z" />
<path d=" M 176.45 152.25 C 179.64 155.57 182.12 159.48 185.07 163.00 C 188.27 167.07 191.80 171.51 191.92 176.93 C 192.41 183.74 187.86 189.64 183.11 194.00 C 180.07 195.53 176.36 195.28 173.03 195.22 C 169.96 193.96 167.30 191.93 164.41 190.32 C 169.58 190.84 175.24 191.54 179.94 188.81 C 183.88 186.77 187.29 182.70 186.61 178.01 C 185.05 168.68 176.26 162.13 176.45 152.25 Z" />
<path d=" M 85.34 164.13 C 92.87 164.95 100.43 162.93 106.88 159.04 C 102.48 164.55 97.94 170.25 91.88 174.01 C 87.05 175.19 82.41 172.21 78.45 169.73 C 80.79 167.93 83.12 166.09 85.34 164.13 Z" />
<path d=" M 147.83 160.13 C 151.45 161.35 154.51 163.75 158.14 164.95 C 163.50 166.72 169.23 167.84 173.92 171.16 C 176.36 172.91 179.28 174.48 180.57 177.34 C 182.27 182.21 178.36 187.47 173.61 188.56 C 168.76 189.28 163.77 188.71 159.30 186.65 C 153.33 184.13 146.05 182.63 140.52 187.00 C 142.05 185.23 143.66 183.54 145.31 181.89 C 154.25 180.05 163.57 185.47 172.14 181.37 C 170.27 173.88 161.98 170.45 155.01 169.49 C 149.98 169.55 149.83 163.47 147.83 160.13 Z" />
<path d=" M 143.34 166.65 C 143.28 165.18 143.61 163.73 143.87 162.29 C 146.28 165.12 148.51 168.14 150.00 171.57 C 147.59 170.38 144.11 169.67 143.34 166.65 Z" />
<path d=" M 109.08 163.89 C 111.21 163.71 113.34 163.51 115.47 163.32 C 113.00 171.61 105.73 178.49 97.17 180.11 C 94.13 180.81 91.00 180.79 87.91 180.67 C 89.72 178.87 91.57 177.11 93.66 175.63 C 96.31 173.66 99.77 173.32 102.50 171.49 C 105.35 169.60 107.24 166.69 109.08 163.89 Z" />
<path d=" M 138.49 163.53 C 142.02 167.46 144.51 172.44 143.71 177.87 C 140.73 176.05 137.98 173.91 135.20 171.80 C 136.46 169.11 137.53 166.33 138.49 163.53 Z" />
<path d=" M 111.34 174.40 C 114.72 171.19 116.17 166.13 120.68 164.15 C 119.36 168.40 117.13 172.28 115.41 176.37 C 113.67 180.28 111.38 184.58 107.10 186.12 C 104.39 186.30 101.72 185.66 99.06 185.25 C 102.51 180.91 107.44 178.23 111.34 174.40 Z" />
<path d=" M 129.99 166.01 C 131.10 173.01 134.66 179.14 137.60 185.46 C 133.42 184.57 129.71 182.35 126.86 179.20 C 128.24 174.89 129.26 170.48 129.99 166.01 Z" />
<path d=" M 116.91 176.89 C 117.98 172.48 121.21 169.04 124.67 166.29 C 127.32 173.41 123.47 180.54 122.86 187.68 C 122.15 187.49 120.72 187.13 120.01 186.94 C 118.48 183.81 116.28 180.55 116.91 176.89 Z" />
<path d=" M 139.11 191.53 C 141.34 188.76 144.15 186.05 147.94 185.93 C 156.77 186.05 163.59 192.29 171.02 196.21 C 164.23 195.44 158.04 192.51 151.59 190.53 C 147.44 189.11 143.10 190.13 139.11 191.53 Z" />
<path d=" M 133.90 214.85 C 131.60 206.77 136.71 196.06 145.92 195.88 C 143.69 198.36 140.95 200.68 140.12 204.06 C 138.60 208.30 139.69 213.76 143.54 216.38 C 145.97 218.21 149.05 216.47 151.70 216.36 C 148.73 218.97 145.01 221.05 140.97 221.11 C 137.70 220.58 134.55 218.24 133.90 214.85 Z" />
<path d=" M 124.86 213.99 C 124.31 207.48 127.80 201.21 133.26 197.78 C 130.44 203.48 128.48 210.38 131.51 216.42 C 133.49 221.45 139.49 223.90 144.57 222.53 C 150.51 220.67 155.75 217.02 161.84 215.59 C 157.25 222.33 150.91 229.45 142.11 229.66 C 133.21 230.62 125.00 222.79 124.86 213.99 Z" /></g>


</g></svg>